<?xml version="1.0" encoding="utf-8"?>
<COLLADA xmlns="http://www.collada.org/2005/11/COLLADASchema" version="1.4.1">
  <asset>
    <unit name="meter" meter="1"/>
    <up_axis>Z_UP</up_axis>
  </asset>

  <library_geometries>
    <geometry id="cone_mesh" name="cone_mesh">
      <mesh>
        <source id="cone_positions">
          <float_array id="cone_positions_array" count="198">
            0.180000 0.000000 0.000000 0.176541 0.035116 0.000000 0.166298 0.068883 0.000000 0.149665 0.100003 0.000000 0.127279 0.127279 0.000000 0.100003 0.149665 0.000000 0.068883 0.166298 0.000000 0.035116 0.176541 0.000000 0.000000 0.180000 0.000000 -0.035116 0.176541 0.000000 -0.068883 0.166298 0.000000 -0.100003 0.149665 0.000000 -0.127279 0.127279 0.000000 -0.149665 0.100003 0.000000 -0.166298 0.068883 0.000000 -0.176541 0.035116 0.000000 -0.180000 0.000000 0.000000 -0.176541 -0.035116 0.000000 -0.166298 -0.068883 0.000000 -0.149665 -0.100003 0.000000 -0.127279 -0.127279 0.000000 -0.100003 -0.149665 0.000000 -0.068883 -0.166298 0.000000 -0.035116 -0.176541 0.000000 -0.000000 -0.180000 0.000000 0.035116 -0.176541 0.000000 0.068883 -0.166298 0.000000 0.100003 -0.149665 0.000000 0.127279 -0.127279 0.000000 0.149665 -0.100003 0.000000 0.166298 -0.068883 0.000000 0.176541 -0.035116 0.000000 0.040000 0.000000 0.450000 0.039231 0.007804 0.450000 0.036955 0.015307 0.450000 0.033259 0.022223 0.450000 0.028284 0.028284 0.450000 0.022223 0.033259 0.450000 0.015307 0.036955 0.450000 0.007804 0.039231 0.450000 0.000000 0.040000 0.450000 -0.007804 0.039231 0.450000 -0.015307 0.036955 0.450000 -0.022223 0.033259 0.450000 -0.028284 0.028284 0.450000 -0.033259 0.022223 0.450000 -0.036955 0.015307 0.450000 -0.039231 0.007804 0.450000 -0.040000 0.000000 0.450000 -0.039231 -0.007804 0.450000 -0.036955 -0.015307 0.450000 -0.033259 -0.022223 0.450000 -0.028284 -0.028284 0.450000 -0.022223 -0.033259 0.450000 -0.015307 -0.036955 0.450000 -0.007804 -0.039231 0.450000 -0.000000 -0.040000 0.450000 0.007804 -0.039231 0.450000 0.015307 -0.036955 0.450000 0.022223 -0.033259 0.450000 0.028284 -0.028284 0.450000 0.033259 -0.022223 0.450000 0.036955 -0.015307 0.450000 0.039231 -0.007804 0.450000 0.000000 0.000000 0.000000 0.000000 0.000000 0.450000
          </float_array>
          <technique_common>
            <accessor source="#cone_positions_array" count="66" stride="3">
              <param name="X" type="float"/>
              <param name="Y" type="float"/>
              <param name="Z" type="float"/>
            </accessor>
          </technique_common>
        </source>

        <vertices id="cone_vertices">
          <input semantic="POSITION" source="#cone_positions"/>
        </vertices>

        <triangles count="128">
          <input semantic="VERTEX" source="#cone_vertices" offset="0"/>
          <p>0 1 33 0 33 32 64 0 1 65 33 32 1 2 34 1 34 33 64 1 2 65 34 33 2 3 35 2 35 34 64 2 3 65 35 34 3 4 36 3 36 35 64 3 4 65 36 35 4 5 37 4 37 36 64 4 5 65 37 36 5 6 38 5 38 37 64 5 6 65 38 37 6 7 39 6 39 38 64 6 7 65 39 38 7 8 40 7 40 39 64 7 8 65 40 39 8 9 41 8 41 40 64 8 9 65 41 40 9 10 42 9 42 41 64 9 10 65 42 41 10 11 43 10 43 42 64 10 11 65 43 42 11 12 44 11 44 43 64 11 12 65 44 43 12 13 45 12 45 44 64 12 13 65 45 44 13 14 46 13 46 45 64 13 14 65 46 45 14 15 47 14 47 46 64 14 15 65 47 46 15 16 48 15 48 47 64 15 16 65 48 47 16 17 49 16 49 48 64 16 17 65 49 48 17 18 50 17 50 49 64 17 18 65 50 49 18 19 51 18 51 50 64 18 19 65 51 50 19 20 52 19 52 51 64 19 20 65 52 51 20 21 53 20 53 52 64 20 21 65 53 52 21 22 54 21 54 53 64 21 22 65 54 53 22 23 55 22 55 54 64 22 23 65 55 54 23 24 56 23 56 55 64 23 24 65 56 55 24 25 57 24 57 56 64 24 25 65 57 56 25 26 58 25 58 57 64 25 26 65 58 57 26 27 59 26 59 58 64 26 27 65 59 58 27 28 60 27 60 59 64 27 28 65 60 59 28 29 61 28 61 60 64 28 29 65 61 60 29 30 62 29 62 61 64 29 30 65 62 61 30 31 63 30 63 62 64 30 31 65 63 62 31 0 32 31 32 63 64 31 0 65 32 63</p>
        </triangles>
      </mesh>
    </geometry>
  </library_geometries>

  <library_visual_scenes>
    <visual_scene id="Scene" name="Scene">
      <node id="cone" name="cone">
        <instance_geometry url="#cone_mesh"/>
      </node>
    </visual_scene>
  </library_visual_scenes>

  <scene>
    <instance_visual_scene url="#Scene"/>
  </scene>
</COLLADA>
